<svg xmlns="http://www.w3.org/2000/svg" viewBox="0 0 120 120" fill="none">
  <!-- Outer ring with star points -->
  <circle cx="60" cy="60" r="56" fill="none" stroke="#FCD116" stroke-width="2" opacity="0.6"/>
  <circle cx="60" cy="60" r="48" fill="none" stroke="#FCD116" stroke-width="1" opacity="0.3"/>
  <!-- Inner circle -->
  <circle cx="60" cy="60" r="40" fill="#FCD116" opacity="0.1"/>
  <circle cx="60" cy="60" r="40" fill="none" stroke="#FCD116" stroke-width="1.5" opacity="0.5"/>
  <!-- Shield shape -->
  <path d="M60 28 L82 40 L82 62 Q82 80 60 92 Q38 80 38 62 L38 40 Z" fill="none" stroke="#135BEC" stroke-width="2" opacity="0.7"/>
  <path d="M60 34 L76 44 L76 60 Q76 75 60 85 Q44 75 44 60 L44 44 Z" fill="#135BEC" opacity="0.08"/>
  <!-- Check mark -->
  <path d="M48 60 L56 68 L72 50" stroke="#135BEC" stroke-width="3" stroke-linecap="round" stroke-linejoin="round" opacity="0.8"/>
  <!-- Star decorations around -->
  <circle cx="60" cy="14" r="3" fill="#FCD116" opacity="0.6"/>
  <circle cx="60" cy="106" r="3" fill="#FCD116" opacity="0.6"/>
  <circle cx="14" cy="60" r="3" fill="#FCD116" opacity="0.6"/>
  <circle cx="106" cy="60" r="3" fill="#FCD116" opacity="0.6"/>
</svg>
